{"extensionsUsed" : ["KHR_materials_clearcoat"], "accessors" : [{"bufferView" : 0, "byteOffset" : 0, "componentType" : 5123, "count" : 5868, "type" : "SCALAR", "max" : [5257], "min" : [0]}, {"bufferView" : 1, "byteOffset" : 0, "componentType" : 5126, "count" : 5258, "type" : "VEC3", "max" : [0.12933503091335297, 0.02875712513923645, 0.12935671210289001], "min" : [-0.15807250142097473, -2.3189444541931152, -0.1259790062904358], "name" : "POSITION"}, {"bufferView" : 1, "byteOffset" : 12, "componentType" : 5126, "count" : 5258, "type" : "VEC3", "max" : [1.0000044107437134, 1.0000044107437134, 1.0000044107437134], "min" : [-1.0000044107437134, -1.0000044107437134, -1.0000044107437134], "name" : "NORMAL"}, {"bufferView" : 1, "byteOffset" : 24, "componentType" : 5126, "count" : 5258, "type" : "VEC2", "max" : [0.9340627789497375, 1.6453173160552979], "min" : [0.8267487287521362, 1.3533200025558472], "name" : "TEXCOORD_0"}, {"bufferView" : 0, "byteOffset" : 11736, "componentType" : 5123, "count" : 1044, "type" : "SCALAR", "max" : [1043], "min" : [0]}, {"bufferView" : 2, "byteOffset" : 0, "componentType" : 5126, "count" : 1044, "type" : "VEC3", "max" : [0.10537748783826828, -0.13844414055347443, -0.034629207104444504], "min" : [-0.1340910941362381, -2.185349702835083, -0.10562126338481903], "name" : "POSITION"}, {"bufferView" : 2, "byteOffset" : 12, "componentType" : 5126, "count" : 1044, "type" : "VEC3", "max" : [0.9920817613601685, 0.9435282945632935, 0.7186541557312012], "min" : [-0.9920817017555237, -0.9435282945632935, -0.9916880130767822], "name" : "NORMAL"}, {"bufferView" : 2, "byteOffset" : 24, "componentType" : 5126, "count" : 1044, "type" : "VEC2", "max" : [0.9989989995956421, 1.998998999595642], "min" : [0.0010010009864345193, 1.1676676273345947], "name" : "TEXCOORD_0"}], "asset" : {"generator" : "Aspose.3D 24.4.1", "version" : "2.0"}, "buffers" : [{"uri" : "data:application/octet-stream;base64,", "byteLength" : 215500}], "bufferViews" : [{"buffer" : 0, "byteOffset" : 0, "byteLength" : 13824, "target" : 34963}, {"buffer" : 0, "byteOffset" : 13828, "byteLength" : 168256, "byteStride" : 32, "target" : 34962}, {"buffer" : 0, "byteOffset" : 182088, "byteLength" : 33408, "byteStride" : 32, "target" : 34962}], "materials" : [{"name" : "Gold.004", "pbrMetallicRoughness" : {"baseColorFactor" : [1, 0.6444793343544006, 0.054480474442243576, 1], "metallicFactor" : 0.8999999761581421, "roughnessFactor" : 0.10000000149011612}, "emissiveFactor" : [0, 0, 0], "alphaMode" : "OPAQUE", "doubleSided" : true}, {"name" : "Gem.004", "extensions" : {"KHR_materials_clearcoat" : {"clearcoatFactor" : 1, "clearcoatRoughnessFactor" : 0}}, "pbrMetallicRoughness" : {"baseColorFactor" : [0.8000000715255737, 0.013303341343998909, 0.038255903869867325, 1], "metallicFactor" : 0.8999999761581421, "roughnessFactor" : 0.20000000298023224}, "emissiveFactor" : [0, 0, 0], "alphaMode" : "OPAQUE", "doubleSided" : true}], "meshes" : [{"primitives" : [{"attributes" : {"POSITION" : 1, "NORMAL" : 2, "TEXCOORD_0" : 3}, "indices" : 0, "material" : 0, "mode" : 4}, {"attributes" : {"POSITION" : 5, "NORMAL" : 6, "TEXCOORD_0" : 7}, "indices" : 4, "material" : 1, "mode" : 4}]}], "nodes" : [{"mesh" : 0, "name" : "bottom"}], "scene" : 0, "scenes" : [{"nodes" : [0]}]}